<svg width="140" height="39" viewBox="0 0 140 39" fill="none" xmlns="http://www.w3.org/2000/svg">
<path fill-rule="evenodd" clip-rule="evenodd" d="M120.922 23.4661C126.056 23.414 136.012 23.2841 136.012 18.9908C136.012 17.0393 133.875 15.8423 131.034 15.8423C126.108 15.8423 122.589 19.2509 120.922 23.4661ZM120.009 27.0569C119.931 27.7073 119.879 28.332 119.879 28.9564C119.879 32.8073 121.703 34.9928 126.004 34.9928C128.464 34.9928 130.544 34.2522 132.582 32.8126C133.409 32.2286 134.546 32.3724 135.207 33.1384C135.962 34.0142 135.809 35.3593 134.862 36.0228C131.941 38.0689 128.992 39.0004 125.587 39.0004C118.524 39.0004 115.422 35.0449 115.422 29.0084C115.422 20.3957 121.756 12.1216 131.164 12.1216C137.107 12.1216 140 15.426 140 19.0689C140 25.5478 130.695 27.0826 120.009 27.0569Z" fill="white"/>
<path fill-rule="evenodd" clip-rule="evenodd" d="M90.6089 12.5649C93.5214 12.5649 96.1287 14.3673 97.1536 17.0891L102.923 32.4087C103 32.6124 103.287 32.6124 103.364 32.4087L109.154 17.087C110.182 14.3659 112.791 12.5649 115.704 12.5649L105.705 36.9475C105.279 37.9853 104.267 38.6628 103.144 38.6628C102.02 38.6628 101.008 37.9842 100.582 36.9453L90.6089 12.5649Z" fill="white"/>
<path fill-rule="evenodd" clip-rule="evenodd" d="M85.5659 25.4957C85.5659 20.2659 82.647 15.9465 77.2776 15.9465C71.9348 15.9465 69.0416 20.2395 69.0416 25.4957C69.0416 30.778 71.9348 35.1752 77.2776 35.1752C82.647 35.1752 85.5659 30.752 85.5659 25.4957ZM64.4545 25.4957C64.4545 18.106 69.6412 12.1216 77.2776 12.1216C84.914 12.1216 90.1533 18.106 90.1533 25.4957C90.1533 32.9375 84.914 39.0004 77.2776 39.0004C69.6412 39.0004 64.4545 32.9375 64.4545 25.4957Z" fill="white"/>
<path fill-rule="evenodd" clip-rule="evenodd" d="M51.151 12.1216C47.4877 12.1216 44.3215 13.8194 42.5944 17.5031C41.3122 13.6628 38.1982 12.1216 34.6657 12.1216C31.5124 12.1216 28.7335 13.4095 27.1862 16.4071C27.0675 15.5562 26.713 14.7816 26.1849 14.1544C25.433 13.189 24.2619 12.5654 22.9422 12.5654H22.8897C22.8461 12.5643 22.8035 12.559 22.7596 12.559V36.4303C22.7596 37.5102 23.5275 38.411 24.5482 38.6187C24.6925 38.6483 24.8416 38.6633 24.9945 38.6633H25.0227C26.2442 38.6633 27.2341 37.6754 27.2341 36.456V23.5642C27.2341 19.3839 29.7199 16.249 33.8023 16.249C37.7533 16.249 39.3235 19.0182 39.3235 23.1457V36.456C39.3235 37.6754 40.3134 38.6633 41.5345 38.6633C42.756 38.6633 43.7458 37.6754 43.7458 36.456V23.5642C43.7458 19.3839 46.2581 16.249 50.2877 16.249C54.3698 16.249 55.8349 19.1228 55.8349 23.7989V36.456C55.8349 37.6754 56.8248 38.6633 58.0463 38.6633H58.0724C59.2938 38.6633 60.2837 37.6754 60.2837 36.456V23.2766C60.2837 16.9808 57.536 12.1216 51.151 12.1216Z" fill="white"/>
<path fill-rule="evenodd" clip-rule="evenodd" d="M12.5812 12.5586V36.4299C12.5812 37.6632 13.5829 38.6629 14.8186 38.6629C16.054 38.6629 17.0557 37.6632 17.0557 36.4299V17.0257C17.0557 14.5586 15.0523 12.5586 12.5812 12.5586Z" fill="white"/>
<path fill-rule="evenodd" clip-rule="evenodd" d="M4.47163 8.92845H8.94934V4.46423C8.94934 1.9954 6.94455 0 4.47163 0C2.00443 0 0 1.9954 0 4.46423C0 5.7015 0.504233 6.81461 1.31079 7.61983C2.11699 8.43112 3.23803 8.92845 4.47163 8.92845Z" fill="url(#paint0_linear)"/>
<defs>
<linearGradient id="paint0_linear" x1="3.03755" y1="10.703" x2="0.546183" y2="1.24601" gradientUnits="userSpaceOnUse">
<stop stop-color="#92F8B8"/>
<stop offset="1" stop-color="#1D966C"/>
</linearGradient>
</defs>
</svg>
